<?xml version="1.0" standalone="no"?>
<!DOCTYPE svg PUBLIC "-//W3C//DTD SVG 20010904//EN"
 "http://www.w3.org/TR/2001/REC-SVG-20010904/DTD/svg10.dtd">
<svg version="1.0" xmlns="http://www.w3.org/2000/svg"
 width="392.752489pt" height="351.313173pt" viewBox="0 0 392.752489 351.313173"
 preserveAspectRatio="xMidYMid meet">
<metadata>
Created by potrace 1.12, written by Peter Selinger 2001-2015
</metadata>
<g transform="translate(-3.623756,376.847856) scale(0.100000,-0.100000)"
fill="#000000" stroke="none">
<path d="M759 3751 c-153 -27 -252 -88 -304 -184 -14 -27 -39 -103 -56 -170
-55 -224 -118 -535 -164 -812 -13 -82 -29 -170 -34 -195 -6 -25 -19 -115 -31
-200 -11 -85 -25 -177 -30 -205 -5 -27 -19 -140 -30 -250 -11 -110 -25 -227
-30 -260 -17 -106 -41 -514 -43 -725 -2 -192 -1 -208 20 -253 44 -96 160 -180
308 -223 84 -25 297 -25 380 0 90 27 148 74 188 151 43 85 49 129 57 450 4
171 13 348 19 395 6 47 18 198 26 335 9 138 21 302 26 365 10 121 30 383 49
635 6 83 15 175 20 205 4 30 11 93 15 140 7 97 14 130 25 130 12 0 79 -183 95
-260 4 -19 11 -41 16 -50 4 -8 20 -64 34 -125 15 -60 39 -162 55 -225 15 -63
37 -160 50 -215 12 -55 28 -122 36 -150 7 -27 21 -86 30 -130 9 -44 22 -102
30 -130 7 -27 25 -99 38 -160 34 -150 78 -328 114 -460 17 -60 44 -161 60
-223 63 -233 109 -358 186 -497 30 -54 74 -60 128 -15 40 33 101 137 113 191
4 19 11 39 15 44 4 6 11 21 15 35 4 14 13 39 21 55 7 17 29 80 48 140 19 61
41 126 49 145 8 19 18 55 22 80 4 25 14 70 22 100 22 82 71 280 99 405 13 61
31 133 38 160 8 28 21 86 30 130 9 44 23 103 30 130 8 28 24 95 36 150 13 55
35 152 50 215 16 63 40 165 55 225 14 61 30 117 34 125 5 9 12 31 16 50 16 77
83 260 95 260 11 0 18 -33 25 -130 4 -47 11 -110 15 -140 5 -30 14 -122 20
-205 19 -252 39 -514 49 -635 5 -63 17 -227 26 -365 8 -137 20 -288 26 -335 6
-47 15 -224 19 -395 8 -321 14 -365 57 -450 40 -77 98 -124 188 -151 83 -25
296 -25 380 0 148 43 264 127 308 223 21 45 22 61 20 253 -2 211 -26 619 -43
725 -5 33 -19 150 -30 260 -11 110 -25 223 -30 250 -5 28 -19 120 -30 205 -12
85 -25 175 -31 200 -5 25 -21 113 -34 195 -46 277 -109 588 -164 812 -17 67
-42 143 -56 170 -56 104 -158 161 -337 189 -104 16 -127 16 -200 4 -354 -56
-604 -274 -764 -664 -14 -33 -29 -70 -34 -81 -44 -99 -159 -537 -196 -747 -8
-48 -20 -48 -28 0 -37 210 -152 648 -196 747 -5 11 -20 48 -34 81 -89 217
-220 398 -364 501 -124 89 -217 129 -367 158 -98 18 -142 18 -266 -4z"/>
</g>
</svg>
